<svg width="488" height="534" viewBox="0 0 488 534" fill="none" xmlns="http://www.w3.org/2000/svg">
<path fill-rule="evenodd" clip-rule="evenodd" d="M24.6939 5.96728C22.6946 8.51183 18.9759 16.8871 16.4332 24.5825C6.24047 55.4207 0.911438 92.5802 0.87327 133.084C0.815109 192.647 12.1202 227.721 40.2066 255.112L51.648 266.27L49.4506 286.919C48.1147 299.465 47.2713 335.027 47.3022 377.543C47.3586 454.216 49.4451 481.898 60.901 557.953C63.9491 578.186 67.7932 605.046 69.4453 617.645L72.4497 640.551L67.5387 651.497C62.3805 662.989 61.1973 675.006 64.5997 681.362C68.1767 688.047 81.6101 692.415 98.8331 692.491C116.798 692.569 128.141 688.661 135.406 679.888L139.824 674.554L146.209 681.259C150.258 685.51 155.586 688.774 160.773 690.179C171.685 693.134 199.844 691.666 207.424 687.745C212.949 684.888 219.716 677.793 221.244 673.256C221.802 671.597 222.593 671.578 224.545 673.182C229.908 677.582 250.957 683.14 267.782 684.599C288.722 686.415 313.222 684.416 333.508 679.236C363.261 671.64 423.085 672.691 451.01 681.302C465.572 685.792 479.344 692.478 484.356 697.491C486.465 699.599 487.93 703.522 487.93 707.057C487.93 714.68 478.96 723.589 462.737 732.083C443.173 742.328 440.814 755.872 457.122 764.327C464.205 767.999 467.244 768.437 481.568 767.848C510.178 766.672 531.863 754.611 541.818 734.338C546.467 724.87 547 721.913 547 705.608C547 688.378 546.678 686.839 540.809 676.017C528.243 652.84 501.252 633.788 466.877 623.826C449.563 618.81 415.619 613.823 398.778 613.823C392.831 613.823 387.981 613.21 388.003 612.459C388.025 611.709 390.001 604.421 392.396 596.262C398.667 574.895 401.418 549.591 400.055 525.828C398.141 492.471 391.975 469.288 376.271 436.427C360.598 403.632 343.668 380.36 304.358 337.582C292.862 325.072 279.491 310.365 274.643 304.899C264.289 293.224 244.38 263.549 244.38 259.794C244.38 258.36 248.327 252.867 253.153 247.587C282.012 216.011 292.001 156.523 281.695 77.6037C277.691 46.9273 268.535 14.9259 260.956 5.12758L257.582 0.763672L243.814 10.2821C232.549 18.0684 210.881 38.5775 187.031 64.0303C183.372 67.9344 183.014 67.9617 168.855 65.4244C153.975 62.7599 123.377 63.3633 109.427 66.5985L102.614 68.1779L86.7083 50.8041C70.4522 33.0431 43.1346 8.99712 33.6307 4.0825C28.5816 1.47252 28.1618 1.56157 24.6939 5.96728ZM56.8879 148.324C38.5163 159.974 33.4435 186.558 46.8442 200.964C62.0716 217.336 98.4168 216.324 107.228 199.284C110.747 192.479 109.731 176.036 105.109 164.969C96.6992 144.834 74.4817 137.166 56.8879 148.324ZM196.215 145.656C183.679 151.252 175.864 164.795 174.066 184.039C173.205 193.275 173.623 196.621 176.118 200.431C180.804 207.579 194.096 212.788 207.405 212.689C240.047 212.447 255.161 180.569 234.229 156.114C223.801 143.933 209.123 139.894 196.215 145.656ZM70.723 162.083C67.0389 165.765 66.261 168.333 66.261 176.805C66.261 186.051 66.8717 187.676 72.4406 193.245C81.5028 202.307 89.7781 200.849 94.5873 189.34C97.9116 181.381 97.8407 175.056 94.3456 167.69C89.4309 157.335 78.1477 154.656 70.723 162.083ZM194.319 161.77C185.361 169.477 186.515 192.416 196.122 197.558C205.23 202.432 216.157 194.028 218.358 180.456C221.281 162.452 206.702 151.119 194.319 161.77ZM128.871 209.775C125.976 212.67 126.132 213.161 131.496 217.954C139.017 224.673 146.233 224.624 153.866 217.805C158.939 213.272 159.408 212.156 157.307 209.626C153.808 205.409 133.128 205.518 128.871 209.775Z" fill="#472179"/>
</svg>
