<svg width="460" height="420" viewBox="0 0 460 420" fill="none" xmlns="http://www.w3.org/2000/svg">
<path d="M63.4679 146.261C18.38 137.907 17.3646 65.3267 64.1235 65.8794C100.716 66.3164 97.0269 101.803 101.975 94.8241C111.589 81.2643 114.687 46.3816 78.0431 31.9221C46.4122 19.4419 2.90512 44.7235 0.116042 90.9297C-1.67051 120.517 16.7863 175.168 83.0558 166.068C175.879 153.33 108.543 154.603 63.4679 146.261Z" fill="#632CA6"/>
<path d="M329.69 243.444C329.69 243.444 316.632 273.674 321.001 349.377C321.786 362.963 323.688 376.831 324.112 388.219C347.401 388.219 345.345 414.747 340.409 414.747H303.11C294.332 414.747 278.78 370.559 274.68 309.238C270.58 247.904 329.69 243.444 329.69 243.444ZM176.869 239.189C176.869 239.189 169.479 284.534 129.943 321.615C126.64 336.563 120.059 376.008 117.746 388.386C142.025 388.386 134.223 414.696 127.141 414.696H93.1326C80.9095 414.696 79.0973 370.456 90.485 315.806C101.86 261.168 176.869 239.189 176.869 239.189Z" fill="#472179"/>
<path d="M48.4557 162.716C64.5604 114.492 141.177 116.085 228.358 127.177C267.623 132.177 275.142 69.9436 275.142 59.2371C275.142 12.6325 316.837 -10.8754 358.635 4.88223C368.647 8.64813 376.654 21.9766 381.179 28.9428C406.589 67.9771 441.047 29.1356 444.376 65.2137C448.399 108.849 422.256 123.489 379.456 127.177C355.139 129.273 334.998 141.251 329.703 192.007C327.723 210.927 333.494 264.549 299.01 282.955C288.985 320.986 275.412 367.976 270.091 391.883C299.036 398.001 287.327 419.889 287.327 419.889C287.327 419.889 246.827 419.337 238.023 419.337C227.561 419.337 235.568 342.528 250.041 293.545C188.809 294.098 149.428 276.361 136.948 270.898C123.735 308.943 83.5827 317.593 74.5985 333.775C69.0332 343.8 50.4608 377.256 48.8799 391.561C69.4702 398.245 62.9024 413.823 60.5632 418.835C46.6435 418.283 19.1768 418.283 15.6037 418.283C1.33703 418.283 30.2175 329.546 42.3763 306.295C56.2832 279.677 32.3382 210.94 48.4557 162.716Z" fill="#632CA6"/>
<path d="M252.13 275.948C251.565 280.717 250.318 287.4 248.879 293.544C187.647 294.097 148.266 276.36 135.786 270.897C138.549 260.872 138.742 254.574 137.984 251.129C181.607 258.289 196.439 279.47 252.13 275.948ZM378.307 127.176C353.989 129.271 347.139 140.916 341.831 191.672C339.851 210.591 332.332 264.548 297.861 282.953C307.115 247.119 323.04 123.732 378.307 127.176Z" fill="#472179"/>
<path d="M421.819 47.1797C457.717 47.1797 446.356 53.9403 447.551 68.9268C448.746 83.9133 448.502 107.177 437.577 119.426C423.092 135.646 387.991 135.698 370.549 122.986C353.108 110.275 375.999 47.1797 421.819 47.1797Z" fill="#472179"/>
<path d="M430.174 68.5277C431.575 78.3216 436.523 83.8483 441.472 83.09C451.24 81.5862 459.363 69.1189 459.363 59.235C459.363 49.3512 451.343 46.8577 441.472 47.3075C428.066 47.9245 428.593 57.4356 430.174 68.5277Z" fill="#250C46"/>
<path d="M267.405 77.5266C262.932 109.852 282.276 114.774 298.033 114.774C313.791 114.774 337.286 98.7082 333.353 66.3189C331.631 52.0908 326.22 38.1325 322.955 25.511C318.637 8.76369 307.545 3.2498 298.612 7.9411C277.212 19.1745 270.297 56.7435 267.405 77.5266Z" fill="#472179"/>
<path d="M358.635 59.2358C352.047 59.2358 346.707 53.8957 346.707 47.3083C346.707 40.721 352.047 35.3809 358.635 35.3809C365.222 35.3809 370.562 40.721 370.562 47.3083C370.562 53.8957 365.222 59.2358 358.635 59.2358Z" fill="#250C46"/>
<path d="M217.69 125.892C216.752 145.582 206.045 166.738 182.563 172.972C158.13 179.463 129.609 174.604 122.54 141.161C121.37 135.634 120.869 125.429 121.602 121.702C149.248 119.401 182.396 121.702 217.69 125.892Z" fill="#472179"/>
</svg>
