<!-- Generated by IcoMoon.io -->
<svg version="1.1" xmlns="http://www.w3.org/2000/svg" width="21" height="32" viewBox="0 0 21 32">
<title>hero-image</title>
<path fill="#fff" d="M1.902 0.189c-0.377 0.204-0.566 0.532-0.568 0.987-0.001 0.365 0.087 0.576 0.354 0.838s0.54 0.404 0.997 0.519l0.355 0.089 0.032 0.262c0.017 0.144 0.046 0.319 0.063 0.389s0.024 0.127 0.016 0.127-0.382-0.126-0.83-0.281c-0.997-0.344-1.328-0.389-1.654-0.227-0.347 0.172-0.492 0.429-0.513 0.91-0.016 0.365-0.009 0.397 0.148 0.636 0.117 0.177 0.246 0.295 0.437 0.397 0.265 0.142 0.289 0.145 0.901 0.129l0.629-0.017 0.109 0.203c0.338 0.631 0.928 1.149 1.505 1.321 0.286 0.085 0.908 0.082 1.198-0.006 0.111-0.034 0.111-0.030 0.111 0.503 0 1.282 0.209 2.165 1.186 5.002 0.168 0.488 0.386 1.195 0.485 1.572 0.176 0.671 0.179 0.704 0.182 1.648 0.002 0.902-0.006 0.996-0.135 1.466-0.24 0.882-0.487 1.308-1.745 3.021-0.728 0.991-1.025 1.304-1.532 1.611-0.815 0.495-1.573 0.491-2.818-0.014-0.545-0.221-0.683-0.214-0.765 0.041-0.183 0.569 0.446 1.634 1.209 2.047 0.505 0.273 0.796 0.334 1.476 0.31 0.776-0.028 1.070-0.136 1.466-0.541 0.153-0.156 0.313-0.341 0.355-0.409l0.076-0.125 0.105 0.288c0.455 1.246 0.435 3.076-0.047 4.359l-0.15 0.398 0.076 0.67c0.042 0.369 0.155 1.337 0.252 2.153s0.175 1.494 0.175 1.509c0 0.045 2.664 0.028 2.692-0.017 0.050-0.082-0.303-0.745-0.482-0.906-0.227-0.205-0.504-0.285-0.77-0.224-0.202 0.047-0.618 0.27-0.673 0.362-0.077 0.128-0.135 0.038-0.108-0.168 0.016-0.12 0.065-0.536 0.108-0.925 0.102-0.914 0.283-1.67 0.52-2.178 0.363-0.776 0.318-0.808 0.733 0.519 0.199 0.635 0.531 1.696 0.738 2.359l0.377 1.204h1.323c0.728 0 1.335-0.020 1.35-0.045 0.048-0.080-0.315-0.753-0.492-0.912-0.375-0.338-0.839-0.312-1.344 0.076l-0.158 0.121-0.028-0.216c-0.036-0.273-0.15-1.475-0.249-2.624-0.042-0.488-0.087-0.937-0.1-0.997-0.019-0.087 0.020-0.136 0.186-0.236 0.546-0.33 1.003-1.019 1.15-1.733 0.14-0.683 0.073-1.629-0.181-2.561-0.138-0.505-0.105-1.137 0.097-1.851 0.28-0.99 0.697-1.637 1.722-2.671 0.35-0.353 0.707-0.701 0.792-0.773 0.206-0.174 0.8-0.898 1.023-1.247 0.606-0.951 0.731-2.284 0.347-3.713-0.070-0.259-0.137-0.519-0.15-0.578-0.027-0.124 0.188-0.254 1.705-1.030 1.236-0.633 2.216-1.071 3.077-1.377l0.418-0.149 0.218 0.105c0.514 0.248 0.982 0.167 1.339-0.23 0.187-0.208 0.3-0.451 0.238-0.514-0.041-0.043-1.261-0.315-1.568-0.35-0.215-0.025-0.471 0.013-1.212 0.176-0.517 0.114-1.207 0.265-1.534 0.336s-1.087 0.237-1.689 0.37c-0.602 0.132-1.087 0.217-1.077 0.187s0.309-1.009 0.664-2.177c0.355-1.168 0.667-2.163 0.692-2.211s0.179-0.137 0.343-0.198c0.642-0.24 0.835-0.84 0.549-1.704-0.046-0.139-0.112-0.254-0.146-0.254s-0.356 0.262-0.716 0.583c-0.632 0.563-0.665 0.603-0.96 1.147-0.744 1.375-1.909 3.168-2.415 3.718l-0.303 0.33-0.364-0.35c-0.384-0.369-0.933-0.99-0.933-1.056-0-0.021-0.052-0.124-0.115-0.228-0.521-0.86-0.416-1.414 0.341-1.812 0.53-0.278 1.502-0.936 1.95-1.319 0.672-0.575 1.039-1.129 1.039-1.571 0-0.392-0.341-1.273-0.635-1.639l-0.135-0.168-0.32 0.185c-0.176 0.102-0.342 0.204-0.37 0.226-0.087 0.072-1.616 0.922-1.628 0.905-0.006-0.009-0.077-0.125-0.156-0.257-0.139-0.231-0.154-0.241-0.374-0.241-0.288-0-1.029 0.129-1.355 0.236-0.423 0.139-0.941 0.42-1.26 0.683l-0.306 0.252-0.388-0.101c-0.867-0.225-1.411-0.586-2.353-1.563-0.685-0.711-0.953-0.877-1.408-0.875-0.15 0.001-0.339 0.038-0.421 0.082zM9.937 6.099c-0.177 0.066-0.29 0.244-0.291 0.461-0.002 0.424 0.495 0.61 0.761 0.285 0.162-0.197 0.164-0.401 0.005-0.595-0.137-0.167-0.296-0.218-0.475-0.151z"></path>
<path fill="#472179" d="M17.748 8.607c-1.122 0.301-4.066 0.879-4.282 0.927-0.1 0.022-0.11 0.060-0.143 0.083s-0.339 0.786-0.56 1.634c-0.254 0.98-0.478 1.718-0.612 2.026-0.417 0.952-0.967 1.623-2.314 2.826-1.030 0.919-1.389 1.341-1.647 1.934-0.169 0.39-0.193 0.496-0.199 0.912-0.008 0.538 0.073 0.985 0.287 1.567 0.19 0.518 0.646 1.391 1.087 2.080l0.345 0.539 0.044-0.582c0.056-0.738 0.166-1.228 0.406-1.804 0.315-0.758 0.621-1.166 2.003-2.674 1.122-1.224 1.452-1.768 1.641-2.705 0.085-0.421 0.090-0.568 0.040-1.215-0.046-0.6 0.007-0.851-0.147-1.361-0.104-0.344-0.201-0.672-0.217-0.729-0.019-0.071 0.009-0.125 0.088-0.17 0.064-0.036 0.567-0.294 1.292-0.71 1.452-0.624 2.354-1.093 3.211-1.439l0.608-0.245 0.288 0.138c0.47 0.257 0.91 0.081 1.216-0.239 0.189-0.198 0.375-0.514 0.328-0.558-0.050-0.047-1.646-0.465-1.819-0.455-0.085 0.005-0.509 0.104-0.943 0.22z"></path>
<path fill="#472179" d="M5.75 7.985c1.114-0.1 2.597-0.644 3.361-1.232 0.283-0.218 0.322-0.231 0.325-0.112 0.001 0.047 0.088 0.236 0.192 0.42l0.19 0.333-0.134 0.115c-0.229 0.197-0.876 0.595-1.251 0.77-0.804 0.374-2.201 0.722-2.786 0.694l-0.213-0.010-0.069-0.334c-0.131-0.631-0.151-0.597 0.385-0.645z"></path>
<path fill="#472179" d="M9.724 6.886c-0.154-0.158-0.142-0.513 0.024-0.694 0.287-0.313 0.807-0.085 0.807 0.353 0 0.284-0.288 0.54-0.547 0.487-0.098-0.020-0.226-0.086-0.285-0.147z"></path>
<path fill="#472179" d="M1.218 1.51c-0.184-0.494 0.059-1.143 0.517-1.381 0.155-0.080 0.336-0.124 0.513-0.124 0.433 0 0.755 0.201 1.387 0.865 0.302 0.317 0.726 0.724 0.943 0.905 0.455 0.378 1.179 0.681 1.673 0.798 0.188 0.045 0.204 0.042 0.217 0.055 0.021 0.021 0.064 0.37-0.274 0.819-0.103 0.137-0.255 0.391-1.159 0.391-0.976 0-1.757-0.265-1.881-0.435-0.035-0.049-0.044-0.12-0.079-0.344-0.059-0.373-0.076-0.411-0.205-0.438-0.874-0.188-1.456-0.578-1.654-1.111z"></path>
<path fill="#472179" d="M11.593 1c0.009-0.008 0.164-0.099 0.344-0.201s0.332-0.186 0.336-0.187c0.005-0 0.101 0.144 0.214 0.321 0.239 0.375 0.215 0.448-0.162 0.491-0.174 0.020-0.273-0-0.424-0.087-0.174-0.1-0.353-0.296-0.308-0.337z"></path>
</svg>
