<svg width="286" height="286" viewBox="0 0 286 286" fill="none" xmlns="http://www.w3.org/2000/svg">
<path d="M227.923 153.318C228.145 150.705 228.809 148.745 229.914 147.44C231.019 146.134 232.655 145.573 234.823 145.757L234.834 149.58L234.824 151.175L234.095 151.113C233.469 151.06 232.908 151.236 232.412 151.642C231.915 152.047 231.631 152.674 231.559 153.522C231.511 154.092 231.547 154.571 231.668 154.959C231.805 155.153 232.048 155.264 232.395 155.294C233.146 155.358 233.789 155.202 234.325 154.828C234.859 154.467 235.186 153.83 235.306 152.917L235.768 149.953L237.394 150.092L237.328 153.089C237.293 153.995 237.516 154.672 237.995 155.119C238.475 155.566 239.07 155.819 239.779 155.88C240.001 155.899 240.208 155.853 240.399 155.744C240.606 155.285 240.73 154.82 240.77 154.347C240.848 153.43 240.668 152.75 240.229 152.306C239.79 151.877 239.285 151.638 238.716 151.59L237.986 151.528L238.246 149.954L238.902 146.188C241.042 146.37 242.548 147.184 243.419 148.63C244.289 150.09 244.613 152.119 244.392 154.718C244.31 155.677 244.08 156.658 243.701 157.662C243.321 158.666 242.775 159.494 242.061 160.147C241.348 160.801 240.491 161.085 239.49 161C238.531 160.918 237.81 160.675 237.326 160.27C236.843 159.865 236.529 159.355 236.386 158.741C236.256 158.128 236.214 157.389 236.259 156.525L235.8 156.486C235.698 157.359 235.524 158.087 235.279 158.668C235.032 159.263 234.63 159.718 234.071 160.035C233.525 160.366 232.772 160.491 231.813 160.41C230.785 160.322 229.961 159.888 229.341 159.108C228.736 158.328 228.324 157.404 228.107 156.336C227.903 155.283 227.841 154.276 227.923 153.318Z" fill="#FFDFE5"/>
<path d="M239.151 177.459C238.031 177.112 235.465 176.395 231.453 175.308C227.441 174.221 224.871 173.546 223.743 173.283L225.094 168.296C226.924 168.849 229.084 169.464 231.575 170.138L232.746 165.817C230.754 165.277 228.583 164.703 226.233 164.095L227.584 159.107C230.42 159.948 232.976 160.677 235.251 161.293C237.526 161.91 240.107 162.573 242.992 163.283L241.641 168.271C239.278 167.602 237.229 167.032 235.492 166.561L234.321 170.883C236.556 171.488 238.616 172.018 240.502 172.471L239.151 177.459Z" fill="#FFDFE5"/>
<path d="M219.602 181.968C220.519 182.178 221.138 182.318 221.458 182.39C221.622 182.435 221.804 182.473 222.005 182.504C222.212 182.554 222.441 182.607 222.693 182.662L223.589 180.725L224.477 178.808L221.967 176.861L224.182 172.077L227.805 174.907C232.484 178.58 235.589 180.986 237.12 182.126L233.393 190.176C230.44 189.516 225.09 188.406 217.342 186.847L219.602 181.968ZM225.284 183.239C229.004 184.07 231.8 184.835 233.675 185.534L233.789 185.287C231.851 184.128 229.456 182.496 226.603 180.391L225.284 183.239Z" fill="#FFDFE5"/>
<path d="M211.204 195.396C213.194 196.835 215.481 198.444 218.065 200.225C219.627 201.301 220.496 201.908 220.672 202.046L220.85 201.788C219.779 200.712 218.792 199.6 217.889 198.452L213.376 192.243L217.246 186.627C219.328 188.129 221.529 189.679 223.849 191.277C226.157 192.868 228.338 194.337 230.391 195.684L227.697 199.595C224.264 197.128 221.818 195.392 220.36 194.387C219.372 193.706 218.687 193.226 218.304 192.945L218.15 193.169C218.649 193.699 219.329 194.481 220.192 195.516L225.525 202.747L221.667 208.347C219.524 206.786 217.562 205.392 215.782 204.165C213.301 202.456 210.881 200.831 208.521 199.29L211.204 195.396ZM228.179 208.261C226.385 206.957 226.152 205.34 227.482 203.41C228.74 201.584 230.322 201.242 232.227 202.386L231.534 203.687C231.213 203.465 230.859 203.45 230.473 203.641C230.098 203.841 229.733 204.199 229.377 204.716C228.997 205.267 228.781 205.753 228.728 206.174C228.679 206.614 228.815 206.945 229.136 207.167L228.179 208.261Z" fill="#FFDFE5"/>
<path d="M207.372 199.924C209.425 201.956 211.283 203.757 212.946 205.327C214.022 206.342 215.086 207.327 216.14 208.283C216.877 207.502 217.771 206.514 218.822 205.319L221.683 208.018L212.623 217.621L209.762 214.922C210.798 213.905 211.747 212.94 212.608 212.027C211.938 211.356 210.78 210.245 209.137 208.694C207.351 207.009 205.567 205.354 203.783 203.729L207.372 199.924Z" fill="#FFDFE5"/>
<path d="M191.93 213.727C193.388 215.703 195.076 217.933 196.995 220.416C198.156 221.916 198.798 222.759 198.924 222.944L199.172 222.753C198.48 221.401 197.879 220.041 197.368 218.674L194.96 211.385L200.356 207.214C201.881 209.278 203.506 211.425 205.229 213.654C206.944 215.872 208.574 217.935 210.119 219.843L206.362 222.748C203.843 219.353 202.042 216.955 200.959 215.554C200.225 214.605 199.719 213.938 199.44 213.554L199.225 213.721C199.538 214.377 199.948 215.33 200.455 216.578L203.333 225.09L197.953 229.248C196.387 227.109 194.943 225.184 193.621 223.474C191.778 221.09 189.968 218.805 188.19 216.619L191.93 213.727Z" fill="#FFDFE5"/>
<path d="M170.407 228.632C169.772 227.082 168.982 225.258 168.038 223.159L171.587 221.563L172.608 223.834L181.501 219.836C181.313 219.385 180.979 218.625 180.499 217.557L184.048 215.961C184.494 216.953 184.91 217.86 185.294 218.681C185.684 219.515 186.116 220.407 186.589 221.356L184.948 222.094C184.706 222.952 184.68 223.828 184.868 224.722C185.056 225.617 185.424 226.674 185.973 227.896C187.1 230.402 188.058 232.448 188.848 234.035L177.132 239.303C176.502 237.766 175.438 235.331 173.939 231.998C173.121 230.179 172.497 228.808 172.067 227.885L170.407 228.632ZM176.647 225.826C177.052 226.761 177.666 228.144 178.49 229.976C179.302 231.782 179.92 233.14 180.345 234.051L184.6 232.137C184.298 231.432 183.884 230.494 183.358 229.324C182.797 228.077 182.426 226.944 182.243 225.925C182.066 224.919 182.147 224.011 182.486 223.201L176.647 225.826Z" fill="#FFDFE5"/>
<path d="M168.319 225.165C169.068 228.37 169.683 230.963 170.163 232.942C170.64 234.907 171.28 237.486 172.083 240.678L164.256 242.578C162.1 243.101 160.374 243.025 159.076 242.349C157.765 241.677 156.866 240.338 156.379 238.332C156.027 236.881 155.912 235.668 156.034 234.691C156.159 233.728 156.543 232.945 157.187 232.344C157.83 231.743 158.762 231.295 159.982 230.999C160.646 230.838 161.18 230.73 161.583 230.675C161.972 230.623 162.295 230.624 162.552 230.676C163.046 230.7 163.457 230.859 163.787 231.152C164.106 231.462 164.434 231.899 164.772 232.463L165.042 232.333C164.712 231.681 164.471 231.043 164.32 230.42C163.839 228.441 163.492 227.097 163.277 226.389L168.319 225.165ZM163.065 233.501C162.32 233.682 161.795 234.032 161.49 234.551C161.188 235.084 161.159 235.851 161.403 236.854C161.64 237.83 162.011 238.472 162.516 238.78C163.021 239.088 163.667 239.147 164.453 238.956L166.303 238.507L164.976 233.038L163.065 233.501Z" fill="#FFDFE5"/>
<path d="M142.383 245.064L144.405 232.674C144.553 231.333 144.876 230.343 145.372 229.703C145.855 229.078 146.632 228.724 147.703 228.642L155.025 228.076L155.299 231.622L149.917 232.038L149.239 235.49L149.719 235.453C149.847 234.757 150.109 234.254 150.505 233.944C150.901 233.633 151.509 233.447 152.329 233.383C152.913 233.338 153.442 233.479 153.915 233.806C154.388 234.133 154.702 234.578 154.857 235.139L157.757 243.876L152.375 244.292L149.667 236.128L149.208 236.164L147.807 244.645L142.383 245.064Z" fill="#FFDFE5"/>
<path d="M142.589 228.832C142.424 230.596 142.233 233.24 142.015 236.762C141.795 240.312 141.658 242.98 141.604 244.765L130.829 244.099L131.065 240.278C132.314 240.411 134.185 240.554 136.677 240.708C136.797 239.444 136.94 237.468 137.106 234.782C137.278 231.997 137.387 229.908 137.431 228.513L142.589 228.832Z" fill="#FFDFE5"/>
<path d="M122.684 226.248C122.685 227.189 122.687 227.823 122.689 228.152C122.682 228.321 122.686 228.507 122.7 228.71C122.698 228.923 122.698 229.158 122.701 229.416L124.789 229.855L126.857 230.291L128.191 227.407L133.35 228.494L131.404 232.66C128.874 238.042 127.225 241.608 126.457 243.356L117.777 241.528C117.758 238.502 117.64 233.039 117.422 225.14L122.684 226.248ZM122.719 232.071C122.743 235.882 122.625 238.779 122.364 240.762L122.63 240.818C123.325 238.67 124.378 235.969 125.79 232.717L122.719 232.071Z" fill="#FFDFE5"/>
<path d="M113.13 229.106C113.185 229.553 113.129 229.976 112.962 230.374C112.736 230.915 112.372 231.314 111.871 231.573C111.351 231.84 110.84 231.868 110.339 231.658C109.978 231.507 109.608 231.254 109.228 230.898C108.842 230.555 108.353 230.025 107.761 229.309C107.458 228.985 107.178 228.77 106.92 228.662C106.702 228.57 106.476 228.604 106.243 228.764C106.004 228.936 105.83 229.135 105.72 229.362L102.707 228.758C102.657 228.299 102.721 227.857 102.899 227.432C103.12 226.905 103.469 226.522 103.947 226.283C104.412 226.039 104.895 226.022 105.397 226.232C106.079 226.518 106.978 227.295 108.095 228.564C108.263 228.74 108.436 228.888 108.613 229.007C108.784 229.14 108.924 229.221 109.032 229.251C109.257 229.33 109.478 229.271 109.696 229.075C109.914 228.879 110.078 228.668 110.188 228.442L113.13 229.106Z" fill="#FFDFE5"/>
<path d="M93.3657 212.23C95.5359 213.702 96.9202 215.239 97.5186 216.842C98.1171 218.444 97.8056 220.146 96.5842 221.947L93.245 220.086L91.8586 219.298L92.2696 218.692C92.622 218.172 92.7426 217.597 92.6316 216.965C92.5206 216.334 92.113 215.779 91.4088 215.302C90.9356 214.981 90.5 214.778 90.1022 214.694C89.866 214.719 89.6501 214.876 89.4543 215.164C89.0316 215.788 88.8524 216.425 88.9168 217.075C88.9697 217.718 89.3654 218.315 90.1037 218.866L92.4624 220.718L91.5463 222.069L88.9646 220.545C88.1908 220.071 87.4916 219.934 86.8672 220.134C86.2427 220.334 85.7309 220.729 85.3316 221.317C85.2063 221.502 85.1447 221.705 85.1468 221.925C85.4454 222.33 85.7909 222.665 86.1833 222.932C86.9452 223.448 87.6266 223.624 88.2276 223.458C88.817 223.285 89.2722 222.962 89.5932 222.489L90.0042 221.883L91.2497 222.879L94.2132 225.294C93.0074 227.071 91.561 227.986 89.8739 228.039C88.1752 228.083 86.2465 227.373 84.0879 225.909C83.2914 225.369 82.5483 224.688 81.8585 223.866C81.1687 223.044 80.7134 222.162 80.4927 221.221C80.272 220.279 80.4435 219.392 81.0072 218.561C81.5474 217.765 82.1124 217.255 82.7022 217.031C83.292 216.808 83.8899 216.783 84.4959 216.958C85.0941 217.145 85.7588 217.47 86.4902 217.932L86.7485 217.551C86.037 217.035 85.4878 216.527 85.101 216.029C84.7027 215.523 84.5023 214.949 84.4997 214.307C84.4777 213.668 84.7368 212.951 85.277 212.154C85.8564 211.3 86.638 210.793 87.6219 210.635C88.598 210.488 89.605 210.581 90.643 210.914C91.6617 211.251 92.5692 211.69 93.3657 212.23Z" fill="#FFDFE5"/>
<path d="M66.9419 210.32C67.7912 209.512 69.6693 207.622 72.5762 204.651C75.4831 201.68 77.3264 199.766 78.1062 198.909L81.7999 202.524C80.4237 203.85 78.8332 205.436 77.0286 207.28L80.2289 210.412C81.6726 208.936 83.2331 207.321 84.9105 205.567L88.6043 209.181C86.4864 211.246 84.6032 213.121 82.9547 214.806C81.3061 216.49 79.4679 218.419 77.44 220.591L73.7462 216.977C75.483 215.242 76.9806 213.732 78.2389 212.445L75.0386 209.314C73.4194 210.969 71.9517 212.509 70.6357 213.934L66.9419 210.32Z" fill="#FFDFE5"/>
<path d="M72.5082 191.041C71.8786 191.741 71.4546 192.213 71.2362 192.458C71.1173 192.579 70.9953 192.72 70.8702 192.88C70.7256 193.037 70.5682 193.212 70.398 193.404L71.6533 195.13L72.8964 196.839L75.8189 195.593L78.9204 199.856L74.6843 201.644C69.1992 203.944 65.586 205.486 63.8448 206.269L58.6265 199.095C60.6403 196.837 64.2132 192.703 69.3452 186.693L72.5082 191.041ZM68.6323 195.387C66.0965 198.232 64.0673 200.303 62.5446 201.601L62.7046 201.821C64.6601 200.692 67.2513 199.393 70.4784 197.925L68.6323 195.387Z" fill="#FFDFE5"/>
<path d="M64.8694 177.205C62.6446 178.244 60.126 179.46 57.3135 180.852C55.6134 181.694 54.6603 182.158 54.4541 182.244L54.5934 182.526C56.0547 182.114 57.5062 181.792 58.9481 181.56L66.5681 180.636L69.5942 186.749C67.2695 187.837 64.8446 189.007 62.3195 190.257C59.807 191.501 57.4631 192.692 55.2878 193.831L53.1807 189.575C57.0054 187.775 59.7115 186.482 61.299 185.696C62.374 185.164 63.1271 184.799 63.5583 184.601L63.4376 184.357C62.732 184.535 61.7175 184.75 60.3941 185L51.482 186.144L48.4652 180.05C50.8711 178.937 53.0429 177.9 54.9804 176.941C57.6804 175.605 60.2775 174.28 62.7715 172.967L64.8694 177.205ZM45.3735 185.783C47.3857 184.849 48.9117 185.432 49.9514 187.532C50.9353 189.519 50.4645 191.068 48.5388 192.177L47.739 190.938C48.0891 190.765 48.2743 190.463 48.2947 190.033C48.3026 189.609 48.1673 189.115 47.8888 188.553C47.5918 187.953 47.2722 187.527 46.9301 187.277C46.5694 187.019 46.214 186.978 45.864 187.151L45.3735 185.783Z" fill="#FFDFE5"/>
<path d="M62.7598 171.628C59.9828 172.422 57.5026 173.159 55.3189 173.841C53.9076 174.281 52.527 174.726 51.1772 175.177C51.4971 176.202 51.9206 177.465 52.4475 178.967L48.6927 180.138L44.7599 167.536L48.5147 166.364C48.8936 167.766 49.27 169.065 49.6439 170.264C50.5576 170.008 52.093 169.543 54.25 168.87C56.5934 168.139 58.9106 167.394 61.2016 166.635L62.7598 171.628Z" fill="#FFDFE5"/>
<path d="M58.2928 151.534C55.856 151.837 53.0852 152.217 49.9805 152.675C48.1038 152.951 47.0541 153.099 46.8313 153.118L46.877 153.428C48.3942 153.486 49.8743 153.628 51.3172 153.852L58.8511 155.322L59.8457 162.069C57.2986 162.388 54.6313 162.753 51.8439 163.164C49.0703 163.573 46.4733 163.984 44.0528 164.397L43.3602 159.699C47.5535 159.165 50.5264 158.769 52.2789 158.511C53.4656 158.336 54.2945 158.221 54.7657 158.166L54.7261 157.896C54 157.848 52.9688 157.74 51.6326 157.57L42.8019 155.911L41.8103 149.184C44.4423 148.866 46.8277 148.55 48.9665 148.235C51.9471 147.795 54.826 147.336 57.6032 146.856L58.2928 151.534Z" fill="#FFDFE5"/>
<path d="M55.7865 125.42C57.4487 125.623 59.426 125.827 61.7184 126.031L61.3737 129.907L58.8937 129.687L58.0301 139.398C58.5151 139.455 59.3411 139.536 60.5082 139.64L60.1634 143.516C59.0798 143.419 58.0858 143.338 57.1815 143.272C56.2633 143.204 55.2744 143.144 54.2148 143.092L54.3742 141.3C53.7441 140.669 52.9931 140.217 52.1212 139.944C51.2494 139.67 50.1466 139.474 48.8128 139.356C46.0758 139.112 43.822 138.947 42.0514 138.859L43.1894 126.064C44.8377 126.266 47.4819 126.529 51.122 126.853C53.1087 127.03 54.6098 127.156 55.6252 127.233L55.7865 125.42ZM55.1804 132.234C54.1674 132.13 52.6606 131.989 50.66 131.811C48.6872 131.636 47.2 131.51 46.1984 131.435L45.7851 136.083C46.548 136.165 47.5686 136.262 48.8467 136.376C50.2083 136.497 51.3781 136.727 52.3562 137.066C53.3203 137.404 54.0727 137.919 54.6133 138.611L55.1804 132.234Z" fill="#FFDFE5"/>
<path d="M59.8034 125.188C56.6404 124.276 54.0781 123.546 52.1167 122.999C50.1687 122.455 47.6057 121.754 44.4277 120.896L46.5934 113.137C47.1897 111.001 48.0995 109.532 49.3227 108.729C50.5497 107.913 52.1574 107.783 54.1457 108.338C55.5832 108.739 56.6984 109.232 57.4913 109.815C58.2708 110.395 58.7656 111.112 58.9758 111.967C59.186 112.822 59.1224 113.854 58.7848 115.063C58.6011 115.722 58.4347 116.24 58.2856 116.618C58.1403 116.983 57.982 117.265 57.8108 117.463C57.5489 117.883 57.2096 118.164 56.7928 118.309C56.3663 118.436 55.8246 118.509 55.1675 118.528L55.1492 118.827C55.8794 118.857 56.5534 118.959 57.1714 119.131C59.1329 119.679 60.4752 120.032 61.1985 120.19L59.8034 125.188ZM55.095 116.531C55.3013 115.793 55.2524 115.163 54.9485 114.644C54.6311 114.121 53.9753 113.721 52.9811 113.443C52.0139 113.173 51.2725 113.184 50.7569 113.474C50.2414 113.765 49.8748 114.3 49.6573 115.079L49.1454 116.913L54.5662 118.426L55.095 116.531Z" fill="#FFDFE5"/>
<path d="M55.0768 92.8625L64.8967 100.684C65.9936 101.469 66.6998 102.234 67.0155 102.98C67.3243 103.707 67.2531 104.557 66.8018 105.532L63.7158 112.196L60.4883 110.701L62.7567 105.803L60.0767 103.524L59.8745 103.961C60.4185 104.413 60.7291 104.887 60.8064 105.384C60.8837 105.881 60.7494 106.503 60.4036 107.25C60.1574 107.781 59.776 108.173 59.2594 108.426C58.7428 108.679 58.2015 108.735 57.6357 108.596L48.5971 106.855L50.8654 101.956L59.3109 103.585L59.5043 103.167L52.7909 97.7986L55.0768 92.8625Z" fill="#FFDFE5"/>
<path d="M68.9637 101.214C67.5065 100.206 65.2962 98.7433 62.3329 96.8272C59.3462 94.8959 57.088 93.4689 55.5585 92.5464L61.4206 83.4807L64.6357 85.5597C63.9072 86.5836 62.8651 88.1438 61.5094 90.2403C62.5526 90.9647 64.2044 92.0577 66.465 93.5195C68.8075 95.0342 70.5758 96.1527 71.7698 96.8749L68.9637 101.214Z" fill="#FFDFE5"/>
<path d="M80.8706 85.1509C80.048 84.6937 79.4929 84.386 79.2052 84.228C79.0606 84.1391 78.8964 84.0516 78.7125 83.9655C78.5272 83.8597 78.3215 83.7454 78.0956 83.6226L76.6943 85.2321L75.3067 86.8259L77.175 89.3956L73.713 93.3721L71.0231 89.6432C67.5549 84.8113 65.2442 81.6345 64.091 80.1127L69.916 73.4221C72.5675 74.8798 77.3959 77.4376 84.4013 81.0955L80.8706 85.1509ZM75.7679 82.3451C72.4279 80.5099 69.9554 78.9953 68.3503 77.8013L68.1717 78.0064C69.7097 79.6598 71.5549 81.895 73.7072 84.7121L75.7679 82.3451Z" fill="#FFDFE5"/>
<path d="M83.0231 75.3425C82.6065 75.1731 82.2647 74.9182 81.9977 74.5781C81.6361 74.1172 81.4644 73.6048 81.4828 73.0407C81.5035 72.4571 81.7278 71.9974 82.1557 71.6616C82.463 71.4205 82.8646 71.2206 83.3606 71.0618C83.8479 70.8921 84.5488 70.7233 85.4631 70.5554C85.8933 70.4483 86.2181 70.3087 86.4375 70.1365C86.6241 69.9901 86.7045 69.7763 86.6788 69.495C86.6445 69.2028 86.5554 68.9536 86.4113 68.7475L88.4069 66.4102C88.8322 66.5907 89.1869 66.8619 89.471 67.224C89.8241 67.6739 89.9883 68.1656 89.9637 68.6991C89.9501 69.2239 89.7293 69.6543 89.3014 69.9901C88.7198 70.4465 87.6028 70.8532 85.9504 71.2102C85.7146 71.2712 85.5014 71.3498 85.311 71.4461C85.112 71.5313 84.9729 71.6139 84.8937 71.6938C84.7158 71.8511 84.6592 72.0728 84.7241 72.3588C84.7889 72.6447 84.8934 72.8908 85.0374 73.0969L83.0231 75.3425Z" fill="#FFDFE5"/>
<path d="M107.362 66.2175C105.021 67.3983 103.004 67.8606 101.313 67.6045C99.6217 67.3483 98.2862 66.2489 97.3063 64.3061L100.556 62.2925L101.919 61.4644L102.248 62.1182C102.531 62.6786 102.975 63.0638 103.581 63.2738C104.187 63.4838 104.87 63.3973 105.629 63.0141C106.14 62.7566 106.529 62.4746 106.796 62.168C106.889 61.9493 106.857 61.6843 106.7 61.373C106.361 60.7005 105.891 60.2343 105.291 59.9744C104.704 59.7082 103.99 59.7637 103.149 60.1408L100.384 61.3013L99.6488 59.8442L102.235 58.3288C103.026 57.8832 103.486 57.3389 103.615 56.696C103.743 56.053 103.648 55.414 103.327 54.7788C103.227 54.5796 103.08 54.4272 102.886 54.3219C102.387 54.386 101.926 54.5248 101.502 54.7383C100.681 55.1529 100.196 55.6629 100.048 56.2685C99.913 56.8678 99.9741 57.4228 100.232 57.9334L100.561 58.5872L99.0851 59.1911L95.5345 60.6069C94.5672 58.689 94.4709 56.9802 95.2454 55.4805C96.0324 53.9744 97.5903 52.6341 99.9192 51.4596C100.779 51.0262 101.735 50.7079 102.788 50.5047C103.842 50.3014 104.834 50.3323 105.764 50.5973C106.695 50.8623 107.386 51.4431 107.838 52.3398C108.271 53.1991 108.442 53.9408 108.351 54.5649C108.26 55.189 107.99 55.7233 107.543 56.1677C107.089 56.5997 106.482 57.0229 105.722 57.4372L105.93 57.8482C106.727 57.4774 107.437 57.2441 108.061 57.1484C108.696 57.0464 109.296 57.1504 109.858 57.4603C110.427 57.7515 110.928 58.3268 111.361 59.1861C111.826 60.1077 111.888 61.0369 111.549 61.9738C111.202 62.8981 110.631 63.7329 109.836 64.4779C109.046 65.2042 108.221 65.7841 107.362 66.2175Z" fill="#FFDFE5"/>
<path d="M122.07 43.9654C122.362 45.1008 123.097 47.6616 124.276 51.6477C125.454 55.6337 126.227 58.176 126.595 59.2743L121.639 60.739C121.151 58.8907 120.541 56.7292 119.81 54.2546L115.516 55.5236C116.101 57.5033 116.751 59.6529 117.466 61.9724L112.51 63.4371C111.739 60.5816 111.019 58.0236 110.351 55.763C109.683 53.5025 108.894 50.9575 107.985 48.1282L112.941 46.6635C113.61 49.0256 114.2 51.0694 114.71 52.7949L119.004 51.5259C118.347 49.3055 117.718 47.2735 117.115 45.4301L122.07 43.9654Z" fill="#FFDFE5"/>
<path d="M135.899 58.2635C135.596 57.3728 135.39 56.7723 135.283 56.4621C135.235 56.2992 135.172 56.1242 135.093 55.9369C135.027 55.7342 134.951 55.5115 134.866 55.2689L132.747 55.5233L130.649 55.7751L130.312 58.9343L125.077 59.5627L125.582 54.9926C126.249 49.0825 126.665 45.1763 126.83 43.274L135.638 42.2167C136.627 45.0762 138.494 50.2115 141.238 57.6226L135.899 58.2635ZM133.996 52.7604C132.748 49.1592 131.93 46.3776 131.54 44.4155L131.27 44.4479C131.302 46.7058 131.172 49.6013 130.88 53.1344L133.996 52.7604Z" fill="#FFDFE5"/>
<path d="M151.87 58.3025C152.049 55.8536 152.217 53.0619 152.375 49.9275C152.47 48.033 152.53 46.9746 152.555 46.7524L152.242 46.7367C151.888 48.2133 151.461 49.6372 150.959 51.0086L148.047 58.1106L141.234 57.7685C141.419 55.2081 141.582 52.5209 141.723 49.707C141.864 46.9069 141.968 44.2796 142.035 41.8251L146.778 42.0632C146.483 46.28 146.291 49.2729 146.202 51.0421C146.142 52.2401 146.093 53.0756 146.055 53.5485L146.327 53.5622C146.516 52.8594 146.824 51.8694 147.251 50.592L150.602 42.2552L157.393 42.5961C157.191 45.2395 157.035 47.6407 156.927 49.8C156.776 52.8089 156.665 55.7222 156.593 58.5396L151.87 58.3025ZM153.899 37.0998C153.732 39.3119 152.478 40.3593 150.138 40.2418C147.923 40.1306 146.801 38.964 146.773 36.742L148.244 36.6483C148.225 37.0384 148.398 37.3473 148.763 37.5751C149.13 37.7891 149.626 37.9117 150.253 37.9432C150.922 37.9768 151.449 37.9055 151.835 37.7294C152.236 37.54 152.446 37.2503 152.465 36.8602L153.899 37.0998Z" fill="#FFDFE5"/>
<path d="M158.044 59.1816C158.708 56.3707 159.275 53.8461 159.746 51.6077C160.051 50.1609 160.336 48.7386 160.602 47.3407C159.551 47.1194 158.242 46.8722 156.675 46.5991L157.485 42.7501L170.404 45.4708L169.593 49.3197C168.185 48.9662 166.867 48.6601 165.639 48.4014C165.416 49.3237 165.072 50.8904 164.606 53.1015C164.1 55.5037 163.619 57.8897 163.163 60.2596L158.044 59.1816Z" fill="#FFDFE5"/>
<path d="M177.496 64.9643C178.419 62.689 179.438 60.0842 180.551 57.1501C181.224 55.3766 181.607 54.388 181.699 54.1843L181.406 54.0729C180.615 55.3693 179.771 56.5928 178.872 57.7434L173.917 63.6058L167.54 61.1858C168.502 58.8061 169.484 56.2992 170.483 53.665C171.478 51.0438 172.385 48.5758 173.204 46.2608L177.644 47.946C176.066 51.8676 174.963 54.6564 174.335 56.3126C173.909 57.4341 173.606 58.214 173.424 58.6525L173.679 58.749C174.074 58.1383 174.672 57.291 175.471 56.2069L181.224 49.3045L187.581 51.7171C186.576 54.1701 185.689 56.4072 184.922 58.4285C183.853 61.2453 182.851 63.9831 181.917 66.642L177.496 64.9643Z" fill="#FFDFE5"/>
<path d="M201.978 75.8283C200.982 77.1749 199.832 78.7958 198.526 80.6909L195.321 78.483L196.734 76.4328L188.705 70.9012C188.417 71.2953 187.94 71.9747 187.276 72.9395L184.071 70.7316C184.688 69.8357 185.248 69.0105 185.751 68.256C186.262 67.4901 186.801 66.6587 187.368 65.7621L188.85 66.7829C189.708 66.5446 190.471 66.1133 191.139 65.489C191.806 64.8647 192.519 64.0012 193.279 62.8986C194.838 60.6359 196.091 58.7554 197.039 57.2572L207.617 64.5456C206.63 65.8808 205.099 68.053 203.026 71.0623C201.894 72.7047 201.045 73.9492 200.479 74.7955L201.978 75.8283ZM196.344 71.9466C196.933 71.1161 197.798 69.8738 198.937 68.2199C200.061 66.5889 200.902 65.3559 201.46 64.5211L197.618 61.8739C197.172 62.4977 196.584 63.338 195.856 64.3947C195.081 65.5203 194.305 66.4254 193.528 67.1099C192.759 67.7829 191.941 68.1844 191.072 68.3142L196.344 71.9466Z" fill="#FFDFE5"/>
<path d="M199.898 79.1665C202.237 76.8501 204.124 74.9693 205.558 73.5241C206.983 72.0889 208.845 70.1934 211.145 67.8376L216.861 73.5127C218.435 75.0751 219.274 76.586 219.378 78.0454C219.492 79.5145 218.821 80.9816 217.367 82.4466C216.316 83.5057 215.342 84.2391 214.446 84.6467C213.56 85.0445 212.692 85.1265 211.843 84.8929C210.994 84.6593 210.124 84.1003 209.233 83.2158C208.748 82.7343 208.377 82.3362 208.119 82.0215C207.871 81.7167 207.703 81.4412 207.613 81.1949C207.375 80.7618 207.294 80.3281 207.372 79.8939C207.469 79.4596 207.669 78.9509 207.973 78.3679L207.721 78.2061C207.338 78.8288 206.921 79.3679 206.469 79.8232C205.034 81.2684 204.071 82.268 203.58 82.8221L199.898 79.1665ZM209.751 79.2787C210.296 79.8192 210.869 80.0834 211.47 80.0713C212.082 80.0494 212.751 79.6722 213.478 78.9397C214.186 78.227 214.538 77.5747 214.536 76.983C214.534 76.3912 214.246 75.8104 213.672 75.2404L212.321 73.899L208.356 77.8931L209.751 79.2787Z" fill="#FFDFE5"/>
<path d="M230.541 90.8996L218.929 95.6723C217.71 96.2488 216.698 96.4934 215.893 96.4063C215.107 96.3223 214.399 95.8461 213.767 94.9775L209.447 89.0389L212.323 86.9466L215.498 91.3118L218.793 90.0793L218.51 89.6902C217.851 89.9456 217.285 89.9862 216.814 89.8119C216.342 89.6376 215.864 89.2177 215.38 88.5522C215.035 88.0785 214.878 87.5545 214.909 86.9802C214.94 86.4059 215.153 85.9055 215.55 85.4788L221.47 78.4301L224.645 82.7953L219.113 89.381L219.384 89.7532L227.341 86.5006L230.541 90.8996Z" fill="#FFDFE5"/>
<path d="M216.48 98.9574C218.07 98.1741 220.422 96.9531 223.537 95.2944C226.677 93.6226 229.021 92.3426 230.571 91.4542L235.645 100.983L232.266 102.783C231.725 101.648 230.868 99.9795 229.694 97.7758C228.554 98.3354 226.796 99.2479 224.42 100.513C221.958 101.824 220.121 102.826 218.909 103.519L216.48 98.9574Z" fill="#FFDFE5"/>
<path d="M224.656 116.987C225.455 116.49 225.993 116.154 226.271 115.979C226.419 115.896 226.575 115.794 226.74 115.675C226.922 115.565 227.122 115.441 227.339 115.303L226.612 113.296L225.892 111.309L222.738 111.696L220.942 106.739L225.508 106.197C231.416 105.51 235.315 105.031 237.205 104.761L240.228 113.102C237.666 114.712 233.086 117.693 226.488 122.042L224.656 116.987ZM229.586 113.887C232.811 111.858 235.336 110.431 237.159 109.607L237.066 109.352C234.874 109.894 232.024 110.422 228.516 110.937L229.586 113.887Z" fill="#FFDFE5"/>
<path d="M232.234 123.929C232.586 123.649 232.975 123.475 233.403 123.409C233.982 123.319 234.513 123.42 234.995 123.712C235.494 124.016 235.785 124.436 235.869 124.974C235.929 125.36 235.907 125.808 235.802 126.318C235.712 126.826 235.516 127.52 235.215 128.4C235.098 128.827 235.061 129.179 235.104 129.454C235.14 129.689 235.287 129.863 235.545 129.979C235.816 130.092 236.077 130.136 236.328 130.111L237.389 132.995C237.024 133.278 236.614 133.454 236.159 133.525C235.594 133.613 235.085 133.515 234.631 133.233C234.18 132.964 233.913 132.561 233.83 132.023C233.716 131.293 233.908 130.12 234.405 128.504C234.468 128.269 234.503 128.044 234.513 127.831C234.536 127.616 234.532 127.454 234.501 127.346C234.451 127.114 234.285 126.956 234.004 126.873C233.723 126.789 233.457 126.76 233.207 126.785L232.234 123.929Z" fill="#FFDFE5"/>
</svg>
